<svg width="63" height="65" viewBox="0 0 63 65" fill="none" xmlns="http://www.w3.org/2000/svg">
<path d="M31.8815 28.9379C31.8362 28.8782 31.7783 28.8298 31.7122 28.7966C31.6461 28.7634 31.5736 28.7461 31.5001 28.7461C31.4266 28.7461 31.354 28.7634 31.2879 28.7966C31.2218 28.8298 31.1639 28.8782 31.1186 28.9379L24.3374 37.7942C24.2815 37.8679 24.2468 37.9563 24.2373 38.0494C24.2278 38.1425 24.2438 38.2365 24.2836 38.3206C24.3234 38.4047 24.3853 38.4755 24.4623 38.525C24.5393 38.5745 24.6282 38.6006 24.7188 38.6004H29.1932V53.7504C29.1932 54.0254 29.4112 54.2504 29.6776 54.2504H33.3104C33.5768 54.2504 33.7948 54.0254 33.7948 53.7504V38.6067H38.2813C38.687 38.6067 38.911 38.1254 38.6628 37.8004L31.8815 28.9379Z" fill="black"/>
<path d="M49.6277 23.1692C46.8547 15.6192 39.7889 10.2505 31.5121 10.2505C23.2354 10.2505 16.1695 15.613 13.3965 23.163C8.20762 24.5692 4.375 29.4505 4.375 35.2505C4.375 42.1567 9.79394 47.7505 16.4783 47.7505H18.9062C19.1727 47.7505 19.3906 47.5255 19.3906 47.2505V43.5005C19.3906 43.2255 19.1727 43.0005 18.9062 43.0005H16.4783C14.4379 43.0005 12.5186 42.163 11.0896 40.6442C9.6668 39.1317 8.90996 37.0942 8.97656 34.9817C9.03105 33.3317 9.57598 31.7817 10.5629 30.4755C11.574 29.1442 12.9908 28.1755 14.565 27.7442L16.8598 27.1255L17.7014 24.838C18.2221 23.413 18.9486 22.0817 19.8629 20.8755C20.7655 19.6799 21.8346 18.6289 23.0355 17.7567C25.524 15.9505 28.4545 14.9942 31.5121 14.9942C34.5697 14.9942 37.5002 15.9505 39.9887 17.7567C41.1936 18.6317 42.2592 19.6817 43.1613 20.8755C44.0756 22.0817 44.8021 23.4192 45.3229 24.838L46.1584 27.1192L48.4471 27.7442C51.7287 28.6567 54.0234 31.738 54.0234 35.2505C54.0234 37.3192 53.2424 39.2692 51.8256 40.7317C51.1308 41.4532 50.3042 42.0251 49.3938 42.4146C48.4834 42.804 47.5072 43.0032 46.5217 43.0005H44.0938C43.8273 43.0005 43.6094 43.2255 43.6094 43.5005V47.2505C43.6094 47.5255 43.8273 47.7505 44.0938 47.7505H46.5217C53.2061 47.7505 58.625 42.1567 58.625 35.2505C58.625 29.4567 54.8045 24.5817 49.6277 23.1692Z" fill="black"/>
</svg>
