<svg width="507" height="593" viewBox="0 0 507 593" fill="none" xmlns="http://www.w3.org/2000/svg">
<g filter="url(#filter0_d_1_506)">
<path d="M2 22C2 10.9543 10.9543 2 22 2H485C496.046 2 505 10.9543 505 22V567C505 578.046 496.046 587 485 587H22C10.9543 587 2 578.046 2 567V22Z" fill="#CBDDD1"/>
<path d="M485 1H22C10.402 1 1 10.402 1 22V567C1 578.598 10.402 588 22 588H485C496.598 588 506 578.598 506 567V22C506 10.402 496.598 1 485 1Z" stroke="black" stroke-width="2"/>
</g>
<defs>
<filter id="filter0_d_1_506" x="0" y="0" width="507" height="593" filterUnits="userSpaceOnUse" color-interpolation-filters="sRGB">
<feFlood flood-opacity="0" result="BackgroundImageFix"/>
<feColorMatrix in="SourceAlpha" type="matrix" values="0 0 0 0 0 0 0 0 0 0 0 0 0 0 0 0 0 0 127 0" result="hardAlpha"/>
<feOffset dy="4"/>
<feComposite in2="hardAlpha" operator="out"/>
<feColorMatrix type="matrix" values="0 0 0 0 0 0 0 0 0 0 0 0 0 0 0 0 0 0 1 0"/>
<feBlend mode="normal" in2="BackgroundImageFix" result="effect1_dropShadow_1_506"/>
<feBlend mode="normal" in="SourceGraphic" in2="effect1_dropShadow_1_506" result="shape"/>
</filter>
</defs>
</svg>
