<svg width="605" height="637" viewBox="0 0 605 637" fill="none" xmlns="http://www.w3.org/2000/svg">
<g filter="url(#filter0_d_1_554)">
<path d="M2 22C2 10.9543 10.9543 2 22 2H583C594.046 2 603 10.9543 603 22V611C603 622.046 594.046 631 583 631H22C10.9543 631 2 622.046 2 611V22Z" fill="#CBDDD1"/>
<path d="M583 1H22C10.402 1 1 10.402 1 22V611C1 622.598 10.402 632 22 632H583C594.598 632 604 622.598 604 611V22C604 10.402 594.598 1 583 1Z" stroke="black" stroke-width="2"/>
</g>
<defs>
<filter id="filter0_d_1_554" x="0" y="0" width="605" height="637" filterUnits="userSpaceOnUse" color-interpolation-filters="sRGB">
<feFlood flood-opacity="0" result="BackgroundImageFix"/>
<feColorMatrix in="SourceAlpha" type="matrix" values="0 0 0 0 0 0 0 0 0 0 0 0 0 0 0 0 0 0 127 0" result="hardAlpha"/>
<feOffset dy="4"/>
<feComposite in2="hardAlpha" operator="out"/>
<feColorMatrix type="matrix" values="0 0 0 0 0 0 0 0 0 0 0 0 0 0 0 0 0 0 1 0"/>
<feBlend mode="normal" in2="BackgroundImageFix" result="effect1_dropShadow_1_554"/>
<feBlend mode="normal" in="SourceGraphic" in2="effect1_dropShadow_1_554" result="shape"/>
</filter>
</defs>
</svg>
